<svg width="98" height="34" viewBox="0 0 98 34" fill="none" xmlns="http://www.w3.org/2000/svg">
<path d="M29.75 29.75L22.388 22.388M22.388 22.388C24.3108 20.4653 25.5 17.809 25.5 14.875C25.5 9.00697 20.743 4.25 14.875 4.25C9.00697 4.25 4.25 9.00697 4.25 14.875C4.25 20.743 9.00697 25.5 14.875 25.5C17.809 25.5 20.4653 24.3108 22.388 22.388Z" stroke="white" stroke-width="2" stroke-linecap="round" stroke-linejoin="round"/>
<path d="M85.0472 24.1991C87.7312 23.8807 90.3193 23.2497 92.7741 22.3435C90.7386 20.0841 89.4997 17.093 89.4997 13.8125V12.8197C89.4999 12.7965 89.5 12.7732 89.5 12.75C89.5 8.05558 85.6944 4.25 81 4.25C76.3056 4.25 72.5 8.05558 72.5 12.75L72.4997 13.8125C72.4997 17.093 71.2608 20.0841 69.2253 22.3435C71.6803 23.2498 74.2686 23.8808 76.9528 24.1992M85.0472 24.1991C83.72 24.3565 82.3693 24.4375 80.9997 24.4375C79.6303 24.4375 78.2798 24.3565 76.9528 24.1992M85.0472 24.1991C85.1789 24.6091 85.25 25.0462 85.25 25.5C85.25 27.8472 83.3472 29.75 81 29.75C78.6528 29.75 76.75 27.8472 76.75 25.5C76.75 25.0463 76.8211 24.6091 76.9528 24.1992" stroke="white" stroke-width="2" stroke-linecap="round" stroke-linejoin="round"/>
</svg>
